<svg xmlns="http://www.w3.org/2000/svg" xmlns:xlink="http://www.w3.org/1999/xlink" version="1.1" width="256" height="256" viewBox="0 0 256 256" xml:space="preserve">

<defs>
</defs>
<g style="stroke: none; stroke-width: 0; stroke-dasharray: none; stroke-linecap: butt; stroke-linejoin: miter; stroke-miterlimit: 10; fill: none; fill-rule: nonzero; opacity: 1;" transform="translate(1.4065934065934016 1.4065934065934016) scale(2.81 2.81)" >
	<path d="M 82.735 44.022 c -0.819 0 -1.484 -0.664 -1.484 -1.484 s 0.664 -1.484 1.484 -1.484 c 3.169 0 4.298 -2.741 4.298 -5.305 c 0 -0.82 0.664 -1.484 1.484 -1.484 c 0.819 0 1.484 0.664 1.484 1.484 C 90 40.62 87.013 44.022 82.735 44.022 z" style="stroke: none; stroke-width: 1; stroke-dasharray: none; stroke-linecap: butt; stroke-linejoin: miter; stroke-miterlimit: 10; fill: rgb(0,0,0); fill-rule: nonzero; opacity: 1;" transform=" matrix(1 0 0 1 0 0) " stroke-linecap="round" />
	<path d="M 67.453 78.569 h -9.198 c -3.219 0 -5.86 -2.527 -6.043 -5.701 H 39.819 c -0.184 3.175 -2.824 5.701 -6.044 5.701 h -9.198 c -3.338 0 -6.054 -2.716 -6.054 -6.055 v -4.893 c -4.315 -3.188 -7.612 -7.618 -9.405 -12.627 H 6.054 C 2.716 54.994 0 52.279 0 48.941 v -9.198 c 0 -3.338 2.716 -6.054 6.054 -6.054 h 4.537 c 2.011 -3.857 4.931 -7.176 8.513 -9.677 V 11.431 h 1.484 c 5.235 0 9.954 3.095 12.083 7.81 c 0.585 -0.039 1.166 -0.058 1.738 -0.058 h 23.21 c 14.801 0 26.843 12.041 26.843 26.842 c 0 8.506 -4.081 16.521 -10.956 21.596 v 4.893 C 73.507 75.853 70.791 78.569 67.453 78.569 z M 36.862 69.901 h 18.306 v 2.614 c 0 1.703 1.385 3.088 3.087 3.088 h 9.198 c 1.702 0 3.087 -1.385 3.087 -3.088 v -6.431 l 0.637 -0.442 c 6.461 -4.489 10.319 -11.823 10.319 -19.617 c 0 -13.165 -10.711 -23.875 -23.876 -23.875 H 34.41 c -0.834 0 -1.691 0.047 -2.548 0.139 l -1.171 0.126 l -0.388 -1.111 c -1.278 -3.656 -4.483 -6.25 -8.231 -6.798 v 11.095 l -0.671 0.439 c -3.7 2.422 -6.657 5.801 -8.554 9.771 l -0.403 0.844 h -6.39 c -1.702 0 -3.087 1.385 -3.087 3.087 v 9.198 c 0 1.702 1.385 3.087 3.087 3.087 h 5.224 l 0.325 1.042 c 1.574 5.056 4.859 9.521 9.251 12.572 l 0.637 0.442 v 6.431 c 0 1.703 1.385 3.088 3.087 3.088 h 9.198 c 1.702 0 3.087 -1.385 3.087 -3.088 V 69.901 z" style="stroke: none; stroke-width: 1; stroke-dasharray: none; stroke-linecap: butt; stroke-linejoin: miter; stroke-miterlimit: 10; fill: rgb(0,0,0); fill-rule: nonzero; opacity: 1;" transform=" matrix(1 0 0 1 0 0) " stroke-linecap="round" />
</g>
</svg>